<svg height="512" viewBox="0 0 64 64" width="512" xmlns="http://www.w3.org/2000/svg"><path d="m51.739 19.155-6.871-6.871c-.796.422-1.611.811-2.464 1.131a18.851 18.851 0 0 0-6.759 4.353l-3.232 3.231H50.88c.261-.632.545-1.248.859-1.844zM58 22.999H5.998c-1.653 0-3 1.346-3 3s1.347 3 3 3H58c1.653 0 2.999-1.346 2.999-3s-1.346-3-2.999-3zM20.993 20.952c5.271-.474 9.483-4.681 9.961-9.952h-4.005a12.89 12.89 0 0 1-3.758 8.192 13.106 13.106 0 0 1-2.198 1.76zM54.596 15.048l-5.611-5.64a20.887 20.887 0 0 1-2.341 1.823l6.145 6.145a20.772 20.772 0 0 1 1.807-2.328zM56.702 14.33c.476.478 1.107.741 1.779.741s1.303-.263 1.777-.741a2.55 2.55 0 0 0 .001-3.589l-6.964-7C52.82 3.263 52.188 3 51.517 3s-1.303.263-1.777.741a2.55 2.55 0 0 0-.001 3.589zM21.012 6.835a1 1 0 1 1 1.973.329 25.11 25.11 0 0 1-4.932 11.251l-1.83 2.352a10.918 10.918 0 0 0 5.553-2.989A10.93 10.93 0 0 0 24.997 10V3.044c-5.599.507-9.999 5.227-9.999 10.955v5.085l1.476-1.897a23.092 23.092 0 0 0 4.538-10.352zM13 20.146l-.001-4.604a20.975 20.975 0 0 1-7.502-8.311l-.393-.784 1.788-.895.393.785a18.97 18.97 0 0 0 5.757 6.815c.094-1.452.417-2.843.951-4.127-2.629-3.506-6.642-5.7-10.994-5.991V6A14.993 14.993 0 0 0 13 20.146zM19.178 53.616a3.202 3.202 0 0 1 1.533 2.029c.19.794.054 1.599-.386 2.264-.24.363-.352.789-.321 1.232.07 1.025 1.037 1.859 2.155 1.859h19.679c1.119 0 2.086-.834 2.156-1.858a1.972 1.972 0 0 0-.321-1.232 2.86 2.86 0 0 1-.386-2.264 3.2 3.2 0 0 1 1.533-2.029C52.948 49 57.999 40.333 58 31H6c-.001 9.333 5.048 17.999 13.178 22.616zm34.49-18.789 1.97.345c-1.327 7.567-6.263 14.089-13.203 17.445l-.87-1.8c6.362-3.077 10.886-9.055 12.103-15.99zm-19.669-1.828h1.999v1.999h-1.999zm-2.001 0v1.999H7.999v-1.999z"/></svg>