<svg height="512" width="512" xmlns="http://www.w3.org/2000/svg"><path d="M239.705 184v24h16v-24a8 8 0 0 1 2.343-5.657l13.657-13.656v-47.743l-48 24v23.743l13.657 13.656a8 8 0 0 1 2.343 5.657zM229.862 288h35.686l-.82-32h-34.046zM107.815 97.024l23.4 125.842c3.637 19.558 6.712 40.419 9.6 65.134h38.07c-7.083-27.088-12.281-49.862-16.208-70.982l-23.4-125.843zM231.502 224l-.41 16h33.226l-.41-16zM271.705 76.944l-48 24v22.112l48-24zM494.565 36.429l-47.423-7.414-3.707 23.711 15.808 2.472-2.472 15.809-15.808-2.472-3.707 23.711 15.808 2.472-2.472 15.808-15.807-2.471-3.707 23.711 15.808 2.471-2.472 15.809-15.808-2.472-3.707 23.712 15.808 2.472-2.472 15.808-15.807-2.471-3.707 23.711 15.808 2.471-2.472 15.809-15.808-2.471-3.707 23.711 15.808 2.472-2.472 15.808-15.807-2.471L406.652 288h48.584zM351.843 253.297l-33.629-5.31L310.84 288h36.432zM340.2 79.005a7.943 7.943 0 0 0 5.222 3.2l31.608 4.991a8.007 8.007 0 0 0 9.148-6.641l1.25-7.915-47.413-7.487-1.248 7.9a7.948 7.948 0 0 0 1.433 5.952zM356.023 221.56l-32.008-5.054-2.9 15.74 32.818 5.182zM338.355 178.275l-3.742 23.706 15.8 2.5 3.743-23.706a8 8 0 0 1 3.2-5.222l15.62-11.36 9.679-61.3a23.762 23.762 0 0 1-4.359.406 24.109 24.109 0 0 1-3.757-.3l-31.608-4.991a23.988 23.988 0 0 1-7.686-2.621l-9.682 61.313 11.36 15.62a8 8 0 0 1 1.432 5.955zM159.083 71.217l61.148-26.035-3.503-18.842-66.421-2.315-124.979 23.24 8.775 47.191zM408 368v-32h-48v32h16v-16h16v16zM371.578 455.155A7.994 7.994 0 0 1 368 456h-16a7.994 7.994 0 0 1-3.578-.845L334.111 448H320v32h14.111l14.311-7.155A7.994 7.994 0 0 1 352 472h16a7.994 7.994 0 0 1 3.578.845L385.889 480H440v-32h-54.111zM464 448h-8v32h8a16 16 0 0 0 0-32zM152 368v-32h-48v32h16v-16h16v16zM32 304h448v16H32zM61.632 208.63l15.728-2.911 2.912 15.728-15.728 2.912z"/><path d="M339.578 432.845 353.889 440h12.222l14.311-7.155A7.994 7.994 0 0 1 384 432h80v-96h-40v40a8 8 0 0 1-8 8h-24v16h-16v-16h-24a8 8 0 0 1-8-8v-40h-24v80h-16v-80h-96v88h-16v-88h-24v40a8 8 0 0 1-8 8h-24v16h-16v-16H96a8 8 0 0 1-8-8v-40H48v128a16.019 16.019 0 0 0 16 16h76.686l-10.343-10.343a8 8 0 0 1 0-11.314l16-16A8 8 0 0 1 152 440h152a8 8 0 0 1 8-8h24a7.994 7.994 0 0 1 3.578.845zM68.24 169.169a8 8 0 0 0-12.4 8.049l2.913 15.733 15.733-2.913-2.914-15.733a7.946 7.946 0 0 0-3.332-5.136zM92.629 288l-9.401-50.765-15.733 2.913L76.357 288z"/><path d="m147.314 464 8 8H304v-16H155.314z"/></svg>