<svg height="56" width="56" xmlns="http://www.w3.org/2000/svg"><g fill="#000" fill-rule="nonzero"><path d="M19 26.006 13.026 36H19zM28 10.949 21.992 21h12.016z"/><circle cx="28" cy="30" r="2"/><path d="M28 8a4 4 0 1 0 0-8 4 4 0 0 0 0 8zm0-5a1 1 0 1 1 0 2 1 1 0 0 1 0-2zM5.742 22.26a6.008 6.008 0 0 1 2.672 1.689A20.057 20.057 0 0 1 23.949 8.414a6.006 6.006 0 0 1-1.689-2.673A22.956 22.956 0 0 0 5.742 22.26z"/><path d="M10 28a17.9 17.9 0 0 0 1.37 6.873l14.812-24.781C16.998 11.036 10.012 18.767 10 28zM35 23H21v13h14zm-7 11a4 4 0 1 1 0-8 4 4 0 0 1 0 8zM42.974 36 37 26.006V36zM52.256 22.013a5.96 5.96 0 0 1 2.178.508A27.242 27.242 0 0 0 33.479 1.566c.305.687.478 1.426.508 2.177a24.951 24.951 0 0 1 18.269 18.27zM48.142 27h7.716a3.981 3.981 0 0 0-7.716 0z"/><path d="M47.586 23.949a6.008 6.008 0 0 1 2.672-1.689A22.956 22.956 0 0 0 33.74 5.741a6.006 6.006 0 0 1-1.689 2.673 20.057 20.057 0 0 1 15.535 15.535z"/><path d="M46 28c-.012-9.233-6.998-16.964-16.182-17.908L44.63 34.873A17.9 17.9 0 0 0 46 28zM42.956 38H13.044a17.98 17.98 0 0 0 29.912 0zM29 55.858A4 4 0 0 0 31.858 53H29zM27 55.858V53h-2.858A4 4 0 0 0 27 55.858z"/><path d="M29 48.142V51h2.858A4 4 0 0 0 29 48.142zM24.142 51H27v-2.858A4 4 0 0 0 24.142 51zM33.987 52.257a5.959 5.959 0 0 1-.508 2.177 27.242 27.242 0 0 0 20.955-20.955 5.96 5.96 0 0 1-2.178.508 24.951 24.951 0 0 1-18.269 18.27zM52 32a4 4 0 0 0 3.858-3h-7.716A4 4 0 0 0 52 32z"/><path d="M50.258 33.74a6.008 6.008 0 0 1-2.672-1.689 20.054 20.054 0 0 1-15.535 15.535 6.006 6.006 0 0 1 1.689 2.673A22.956 22.956 0 0 0 50.258 33.74z"/><circle cx="4" cy="28" r="4"/><path d="M22.013 3.743c.03-.751.203-1.49.508-2.177A27.242 27.242 0 0 0 1.566 22.521a5.96 5.96 0 0 1 2.178-.508 24.951 24.951 0 0 1 18.269-18.27zM8.414 32.051a6.008 6.008 0 0 1-2.672 1.689A22.956 22.956 0 0 0 22.26 50.259a6.006 6.006 0 0 1 1.689-2.673A20.053 20.053 0 0 1 8.414 32.051z"/><path d="M3.744 33.987a5.96 5.96 0 0 1-2.178-.508 27.242 27.242 0 0 0 20.955 20.955 5.959 5.959 0 0 1-.508-2.177 24.951 24.951 0 0 1-18.269-18.27z"/></g></svg>