<svg><defs/><symbol id="feature-alchemy" viewBox="0 0 64 64"><path d="m51.739 19.155-6.871-6.871c-.796.422-1.611.811-2.464 1.131a18.851 18.851 0 0 0-6.759 4.353l-3.232 3.231H50.88c.261-.632.545-1.248.859-1.844zM58 22.999H5.998c-1.653 0-3 1.346-3 3s1.347 3 3 3H58c1.653 0 2.999-1.346 2.999-3s-1.346-3-2.999-3zM20.993 20.952c5.271-.474 9.483-4.681 9.961-9.952h-4.005a12.89 12.89 0 0 1-3.758 8.192 13.106 13.106 0 0 1-2.198 1.76zM54.596 15.048l-5.611-5.64a20.887 20.887 0 0 1-2.341 1.823l6.145 6.145a20.772 20.772 0 0 1 1.807-2.328zM56.702 14.33c.476.478 1.107.741 1.779.741s1.303-.263 1.777-.741a2.55 2.55 0 0 0 .001-3.589l-6.964-7C52.82 3.263 52.188 3 51.517 3s-1.303.263-1.777.741a2.55 2.55 0 0 0-.001 3.589zM21.012 6.835a1 1 0 1 1 1.973.329 25.11 25.11 0 0 1-4.932 11.251l-1.83 2.352a10.918 10.918 0 0 0 5.553-2.989A10.93 10.93 0 0 0 24.997 10V3.044c-5.599.507-9.999 5.227-9.999 10.955v5.085l1.476-1.897a23.092 23.092 0 0 0 4.538-10.352zM13 20.146l-.001-4.604a20.975 20.975 0 0 1-7.502-8.311l-.393-.784 1.788-.895.393.785a18.97 18.97 0 0 0 5.757 6.815c.094-1.452.417-2.843.951-4.127-2.629-3.506-6.642-5.7-10.994-5.991V6A14.993 14.993 0 0 0 13 20.146zM19.178 53.616a3.202 3.202 0 0 1 1.533 2.029c.19.794.054 1.599-.386 2.264-.24.363-.352.789-.321 1.232.07 1.025 1.037 1.859 2.155 1.859h19.679c1.119 0 2.086-.834 2.156-1.858a1.972 1.972 0 0 0-.321-1.232 2.86 2.86 0 0 1-.386-2.264 3.2 3.2 0 0 1 1.533-2.029C52.948 49 57.999 40.333 58 31H6c-.001 9.333 5.048 17.999 13.178 22.616zm34.49-18.789 1.97.345c-1.327 7.567-6.263 14.089-13.203 17.445l-.87-1.8c6.362-3.077 10.886-9.055 12.103-15.99zm-19.669-1.828h1.999v1.999h-1.999zm-2.001 0v1.999H7.999v-1.999z"/></symbol><symbol id="feature-crafting"><path d="M239.705 184v24h16v-24a8 8 0 0 1 2.343-5.657l13.657-13.656v-47.743l-48 24v23.743l13.657 13.656a8 8 0 0 1 2.343 5.657zM229.862 288h35.686l-.82-32h-34.046zM107.815 97.024l23.4 125.842c3.637 19.558 6.712 40.419 9.6 65.134h38.07c-7.083-27.088-12.281-49.862-16.208-70.982l-23.4-125.843zM231.502 224l-.41 16h33.226l-.41-16zM271.705 76.944l-48 24v22.112l48-24zM494.565 36.429l-47.423-7.414-3.707 23.711 15.808 2.472-2.472 15.809-15.808-2.472-3.707 23.711 15.808 2.472-2.472 15.808-15.807-2.471-3.707 23.711 15.808 2.471-2.472 15.809-15.808-2.472-3.707 23.712 15.808 2.472-2.472 15.808-15.807-2.471-3.707 23.711 15.808 2.471-2.472 15.809-15.808-2.471-3.707 23.711 15.808 2.472-2.472 15.808-15.807-2.471L406.652 288h48.584zM351.843 253.297l-33.629-5.31L310.84 288h36.432zM340.2 79.005a7.943 7.943 0 0 0 5.222 3.2l31.608 4.991a8.007 8.007 0 0 0 9.148-6.641l1.25-7.915-47.413-7.487-1.248 7.9a7.948 7.948 0 0 0 1.433 5.952zM356.023 221.56l-32.008-5.054-2.9 15.74 32.818 5.182zM338.355 178.275l-3.742 23.706 15.8 2.5 3.743-23.706a8 8 0 0 1 3.2-5.222l15.62-11.36 9.679-61.3a23.762 23.762 0 0 1-4.359.406 24.109 24.109 0 0 1-3.757-.3l-31.608-4.991a23.988 23.988 0 0 1-7.686-2.621l-9.682 61.313 11.36 15.62a8 8 0 0 1 1.432 5.955zM159.083 71.217l61.148-26.035-3.503-18.842-66.421-2.315-124.979 23.24 8.775 47.191zM408 368v-32h-48v32h16v-16h16v16zM371.578 455.155A7.994 7.994 0 0 1 368 456h-16a7.994 7.994 0 0 1-3.578-.845L334.111 448H320v32h14.111l14.311-7.155A7.994 7.994 0 0 1 352 472h16a7.994 7.994 0 0 1 3.578.845L385.889 480H440v-32h-54.111zM464 448h-8v32h8a16 16 0 0 0 0-32zM152 368v-32h-48v32h16v-16h16v16zM32 304h448v16H32zM61.632 208.63l15.728-2.911 2.912 15.728-15.728 2.912z"/><path d="M339.578 432.845 353.889 440h12.222l14.311-7.155A7.994 7.994 0 0 1 384 432h80v-96h-40v40a8 8 0 0 1-8 8h-24v16h-16v-16h-24a8 8 0 0 1-8-8v-40h-24v80h-16v-80h-96v88h-16v-88h-24v40a8 8 0 0 1-8 8h-24v16h-16v-16H96a8 8 0 0 1-8-8v-40H48v128a16.019 16.019 0 0 0 16 16h76.686l-10.343-10.343a8 8 0 0 1 0-11.314l16-16A8 8 0 0 1 152 440h152a8 8 0 0 1 8-8h24a7.994 7.994 0 0 1 3.578.845zM68.24 169.169a8 8 0 0 0-12.4 8.049l2.913 15.733 15.733-2.913-2.914-15.733a7.946 7.946 0 0 0-3.332-5.136zM92.629 288l-9.401-50.765-15.733 2.913L76.357 288z"/><path d="m147.314 464 8 8H304v-16H155.314z"/></symbol><symbol id="feature-magic"><g fill="#000" fill-rule="nonzero"><path d="M19 26.006 13.026 36H19zM28 10.949 21.992 21h12.016z"/><circle cx="28" cy="30" r="2"/><path d="M28 8a4 4 0 1 0 0-8 4 4 0 0 0 0 8zm0-5a1 1 0 1 1 0 2 1 1 0 0 1 0-2zM5.742 22.26a6.008 6.008 0 0 1 2.672 1.689A20.057 20.057 0 0 1 23.949 8.414a6.006 6.006 0 0 1-1.689-2.673A22.956 22.956 0 0 0 5.742 22.26z"/><path d="M10 28a17.9 17.9 0 0 0 1.37 6.873l14.812-24.781C16.998 11.036 10.012 18.767 10 28zM35 23H21v13h14zm-7 11a4 4 0 1 1 0-8 4 4 0 0 1 0 8zM42.974 36 37 26.006V36zM52.256 22.013a5.96 5.96 0 0 1 2.178.508A27.242 27.242 0 0 0 33.479 1.566c.305.687.478 1.426.508 2.177a24.951 24.951 0 0 1 18.269 18.27zM48.142 27h7.716a3.981 3.981 0 0 0-7.716 0z"/><path d="M47.586 23.949a6.008 6.008 0 0 1 2.672-1.689A22.956 22.956 0 0 0 33.74 5.741a6.006 6.006 0 0 1-1.689 2.673 20.057 20.057 0 0 1 15.535 15.535z"/><path d="M46 28c-.012-9.233-6.998-16.964-16.182-17.908L44.63 34.873A17.9 17.9 0 0 0 46 28zM42.956 38H13.044a17.98 17.98 0 0 0 29.912 0zM29 55.858A4 4 0 0 0 31.858 53H29zM27 55.858V53h-2.858A4 4 0 0 0 27 55.858z"/><path d="M29 48.142V51h2.858A4 4 0 0 0 29 48.142zM24.142 51H27v-2.858A4 4 0 0 0 24.142 51zM33.987 52.257a5.959 5.959 0 0 1-.508 2.177 27.242 27.242 0 0 0 20.955-20.955 5.96 5.96 0 0 1-2.178.508 24.951 24.951 0 0 1-18.269 18.27zM52 32a4 4 0 0 0 3.858-3h-7.716A4 4 0 0 0 52 32z"/><path d="M50.258 33.74a6.008 6.008 0 0 1-2.672-1.689 20.054 20.054 0 0 1-15.535 15.535 6.006 6.006 0 0 1 1.689 2.673A22.956 22.956 0 0 0 50.258 33.74z"/><circle cx="4" cy="28" r="4"/><path d="M22.013 3.743c.03-.751.203-1.49.508-2.177A27.242 27.242 0 0 0 1.566 22.521a5.96 5.96 0 0 1 2.178-.508 24.951 24.951 0 0 1 18.269-18.27zM8.414 32.051a6.008 6.008 0 0 1-2.672 1.689A22.956 22.956 0 0 0 22.26 50.259a6.006 6.006 0 0 1 1.689-2.673A20.053 20.053 0 0 1 8.414 32.051z"/><path d="M3.744 33.987a5.96 5.96 0 0 1-2.178-.508 27.242 27.242 0 0 0 20.955 20.955 5.959 5.959 0 0 1-.508-2.177 24.951 24.951 0 0 1-18.269-18.27z"/></g></symbol><symbol id="feature-talent" viewBox="-7 0 463 463.717"><path d="m229.816 225.734 16.454 16.457-21.68 10.848a131.254 131.254 0 0 0-28.336 19.137l15.832 15.832-42.352 42.336A19.439 19.439 0 0 1 156.078 336c-10.648 0-19.312-8.664-19.312-19.312v-3.84a38.746 38.746 0 0 0-23.446 15.336l-28.554 39.984c-16.504 23.105-35.864 43.418-57.758 60.816 29.719 6.368 61.52 1.938 88.191-12.87a331.674 331.674 0 0 0 73.438-55.403l62.418-62.422.03.031 18.419-22.105c13.086-15.695 29.933-27.192 49.133-33.59A78.796 78.796 0 0 1 318.03 202a78.529 78.529 0 0 1 10.903-24.672l4.527-6.785-26.445-15.871c-20.442 28.687-46.899 53.144-77.2 71.062zm0 0"/><path d="M199.95 372.023a347.625 347.625 0 0 1-76.985 58.075C101.87 441.816 77.973 448 53.855 448c-14.73 0-29.242-2.375-43.257-6.855-3.368 2.32-6.758 4.617-10.239 6.816 37.465 20.934 85.344 21.031 122.934.152a331.696 331.696 0 0 0 73.441-55.402l57.97-57.969a15.572 15.572 0 0 0 4.503-12.597c-.25-2.52-1.129-4.864-2.465-6.93zM424.32 28.434c.27-1.442.446-2.914.446-4.434 0-13.23-10.766-24-24-24-13.23 0-24 10.77-24 24s10.77 24 24 24c5.664 0 10.808-2.055 14.914-5.344 11.039 13.07 17.086 29.422 17.086 46.719 0 12.273-4.977 24.29-13.657 32.969S398.414 136 386.141 136c-8.461 0-16.903-1.207-25.102-3.344.777-.824 1.48-1.719 2.281-2.511a129.182 129.182 0 0 0 24.285-33.704 49.116 49.116 0 0 0 5.16-21.875V63.2c-8.175-1.664-15.39-5.886-20.933-11.719-13.715 7.024-25.066 18.399-31.953 32.176a73.185 73.185 0 0 0-5.504 14.887l-.93 3.723c-1.406 5.62-3.285 11.078-5.437 16.414l-15.035-7.52C293.14 101.246 270.94 96 248.773 96h-8c-39.703 0-72 32.297-72 72h16c0-30.871 25.13-56 56-56h8c19.696 0 39.426 4.656 57.051 13.473l15.317 7.664c-1.559 2.773-3.192 5.52-4.965 8.191l-.098.137 26.274 15.765 5.328-8c.726-1.093 1.582-2.101 2.351-3.175 11.649 3.832 23.864 5.953 36.121 5.953 16.485 0 32.621-6.688 44.278-18.344s18.336-27.8 18.336-44.289c0-22.727-8.582-44.11-24.446-60.941zM408.766 32h-16V16h16zm0 0"/></symbol><symbol id="religion-aebrocism" viewBox="0 0 512 512"><path d="m256 16-32 112 32 32 32-32-32-112zM64 96l32 80 64 16-96-96zm384 0-96 96 64-16 32-80zm-192 80-64 48-128 32c80 16 128 96 192 128 64-32 112.476-110.213 192-128l-128-28.31L256 176zm-39.512 52.682 28.342 8.863-7.45 20.955L256 310.895l18.62-52.395-7.45-20.955 28.342-8.863c14.923 10.97 24.488 28.03 24.488 47.283C320 309.237 291.47 336 256 336s-64-26.763-64-60.035c0-19.254 9.565-36.314 24.488-47.283zM96 336l-64 48-16 64 32-32 64-48s-16-27.61-16-32zm320 0-16 32 64 48 32 32-16-64-64-48zm-272 64-16 64 48-48-32-16zm112 0-48 16 48 80 48-80-48-16zm112 0-32 16 48 48-16-64z"/></symbol><symbol id="religion-cajohin" viewBox="0 0 512 512"><path d="M246.406 21.406A235.915 235.915 0 0 0 203.812 27l9.5 35.438a198.544 198.544 0 0 1 33.094-4.313v-36.72zm18.688 0v36.72a198.62 198.62 0 0 1 32.97 4.343l9.53-35.532a235.804 235.804 0 0 0-42.5-5.532zm60.562 10.313-9.53 35.593a197.868 197.868 0 0 1 30.78 12.812l18.47-31.97a234.048 234.048 0 0 0-39.72-16.436zm-139.875.06a234.062 234.062 0 0 0-39.56 16.407l18.343 31.75a197.48 197.48 0 0 1 30.718-12.718l-9.5-35.44zM381.5 57.5l-18.47 32a199.645 199.645 0 0 1 26.345 20.25l26.156-26.156a235.807 235.807 0 0 0-34.03-26.094zm-251.47.063A235.874 235.874 0 0 0 95.937 83.75l25.876 25.875c8.233-7.492 17.125-14.273 26.53-20.313l-18.312-31.75zM255.626 75.97c-99.678 0-180.656 81.01-180.656 180.686 0 99.65 80.977 180.656 180.655 180.656 99.677 0 180.688-80.98 180.688-180.656 0-45.944-17.214-87.905-45.532-119.812-1.284-1.8-2.583-3.594-3.936-5.344l-.563.438c-32.917-34.474-79.306-55.97-130.655-55.97zm0 18.686c47.59 0 90.35 20.44 119.97 53.03 13.164 18.447 22.208 39.743 25.842 62 10.112 61.704-26.617 129.948-91.062 139.533-41.483 6.182-87.313-18.815-93.03-61.94-1.765-13.308 1.52-27.713 8.686-38.78 7.17-11.067 17.735-18.72 31.44-20.28 7.977-.908 16.773 1.222 23.342 5.593 6.57 4.37 10.854 10.442 11.594 18.437v.03c.094.995.085 2.022 0 3.064a20.407 20.407 0 0 0-14.437-5.938c-11.344 0-20.564 9.19-20.564 20.53 0 11.344 9.22 20.533 20.563 20.533 3.624 0 7.01-.946 9.967-2.595 7.022-2.2 12.792-6.888 16.625-12.47a37.718 37.718 0 0 0 6.47-24.874c-1.3-14.016-9.433-25.333-19.876-32.28-10.442-6.947-23.257-10.05-35.812-8.625-19.64 2.238-35.302 13.744-45 28.72-9.698 14.973-13.907 33.487-11.53 51.405 7.274 54.863 63.562 85.533 114.31 77.97 54.573-8.117 91.783-50.963 104.157-100.75-5.308 84.757-75.54 151.686-161.655 151.686-89.58 0-161.97-72.445-161.97-162 0-89.583 72.39-162 161.97-162zm173.094 2.156-26.16 26.158c7.467 8.202 14.288 17.005 20.313 26.374l32-18.47a236.099 236.099 0 0 0-26.156-34.06zm-345.97.157a235.99 235.99 0 0 0-26 33.874l31.656 18.28a199.713 199.713 0 0 1 20.22-26.28L82.75 96.97zm-35.375 50.06a234.04 234.04 0 0 0-16.47 39.75l35.25 9.44a197.495 197.495 0 0 1 12.876-30.94l-31.655-18.25zm416.875 0-32.063 18.5a197.477 197.477 0 0 1 12.782 30.782l35.75-9.562c-4.285-13.826-9.838-27.117-16.47-39.72zM26.125 204.813a235.8 235.8 0 0 0-5.53 42.407H57a198.882 198.882 0 0 1 4.344-32.97l-35.22-9.438zm459.375 0-35.72 9.563a198.727 198.727 0 0 1 4.314 32.844h36.937a235.776 235.776 0 0 0-5.53-42.407zM20.594 265.906a235.912 235.912 0 0 0 5.562 42.594l35.188-9.406A198.683 198.683 0 0 1 57 265.906H20.594zm433.5 0a198.713 198.713 0 0 1-4.313 33.063l35.69 9.56a235.76 235.76 0 0 0 5.56-42.624h-36.936zm-9.125 51.125a197.396 197.396 0 0 1-12.69 30.626l32 18.47a234.063 234.063 0 0 0 16.376-39.532l-35.687-9.563zm-378.814.095-35.22 9.438c4.277 13.774 9.832 27.003 16.44 39.562l31.562-18.22a197.511 197.511 0 0 1-12.782-30.78zm356.813 46.72a199.995 199.995 0 0 1-20.376 26.56l26.062 26.064a235.936 235.936 0 0 0 26.28-34.19l-31.967-18.436zm-334.69.25-31.59 18.214a235.88 235.88 0 0 0 26.126 34l25.812-25.812c-7.483-8.21-14.307-17.027-20.344-26.406zm301.126 39.53c-8.177 7.454-17.007 14.198-26.344 20.22l18.407 31.905c12.124-7.66 23.476-16.413 33.967-26.094l-26.03-26.03zm-267.594.094L96.03 429.5a235.932 235.932 0 0 0 34.062 26.188l18.25-31.625a199.649 199.649 0 0 1-26.53-20.344zm225.125 29.53c-9.812 5.092-20.13 9.363-30.812 12.78l9.5 35.47a234.041 234.041 0 0 0 39.688-16.438l-18.375-31.812zm-182.406.188-18.25 31.625a234.06 234.06 0 0 0 39.5 16.375l9.47-35.313a197.422 197.422 0 0 1-30.72-12.688zm133.564 17.437a198.727 198.727 0 0 1-33 4.344v36.592a235.956 235.956 0 0 0 42.47-5.53l-9.47-35.407zm-84.78.063-9.47 35.28a235.664 235.664 0 0 0 42.562 5.594V455.25a198.426 198.426 0 0 1-33.094-4.313z"/></symbol><symbol id="religion-iians" viewBox="0 0 512 512"><path d="M133.813 38.28c-62.975 0-113.407 51.22-113.407 114.19 0 62.972 50.432 113.405 113.406 113.405 12.027 0 23.638-1.835 34.532-5.25a95.864 95.864 0 0 1-1.25-2.906l-69.78-120.876-8.19-13.625 16-.345h138.97c-13.07-48.662-57.543-84.596-110.28-84.594zm247.843 0c-52.74 0-96.672 35.93-109.562 84.595H426.47l-8.19 14.28-71.124 123.314c-.004.007.004.02 0 .03-.013.03-.017.064-.03.094 10.874 3.434 22.47 5.28 34.53 5.28 62.975 0 114.156-50.432 114.156-113.405 0-62.972-51.18-114.19-114.156-114.19zm-260.53 103.314 39.093 67.562c3.127-27.534 17.792-51.71 39-67.562h-78.095zm125.405 0c-38.53 5.45-68.186 38.596-68.186 78.625 0 11.152 2.282 21.772 6.437 31.405l1.064 1.844c36.87-18.726 62.156-56.763 62.156-101 0-3.67-.19-7.295-.53-10.876h-.94zm22.25 0c-.334 3.58-.53 7.206-.53 10.875 0 44.112 24.748 82.062 61.22 100.843l1.75-3.032a79.097 79.097 0 0 0 5.905-30.06c0-40.03-29.657-73.175-68.188-78.626h-.156zm47.47 0c21.134 15.798 35.742 39.864 38.938 67.28l38.937-67.28H316.25zm-58.5 109.28c-23.044 0-44.42 6.85-62.25 18.626.005.006-.005.025 0 .03 14.546 18.33 37.014 30.095 62.22 30.095 25.257 0 47.766-11.823 62.31-30.22-17.92-11.708-39.308-18.53-62.28-18.53zm-77.094 30.345c-22.37 20.864-36.312 50.707-36.312 83.81 0 62.974 50.43 113.408 113.406 113.408 62.975 0 114.156-50.434 114.156-113.407 0-33.095-14.16-62.915-36.72-83.78l-69.06 119.72-8.5 13.967-7.813-13.968-69.157-119.75zm38 28.936 38.97 67.344 38.905-67.22a97.13 97.13 0 0 1-38.81 8.064c-13.87 0-27.07-2.93-39.064-8.188z"/></symbol><symbol id="religion-olezuthos" viewBox="0 0 512 512"><path d="M257.635 19.707 235.02 57.67h45.228l-22.613-37.963zm-105.03 56.658v23.703H362.67V76.365H152.604zm41.375 42.4c18.588 20.862 30.24 45.644 38.967 72.128a68.275 68.275 0 0 1 15.344-3.952v-50.57h18.69v50.567a68.387 68.387 0 0 1 15.1 3.85c8.63-26.39 20.246-51.114 39.008-72.023H193.98zM78.898 150.21v210.04h23.657V150.21H78.898zm333.823 0v210.04h23.657V150.21H412.72zm-18.695 41.31c-20.847 18.572-45.605 30.22-72.064 38.945a68.22 68.22 0 0 1 3.974 15.357h50.498v18.69h-50.48a68.266 68.266 0 0 1-3.847 15.13c26.352 8.627 51.038 20.234 71.92 38.967V191.52zm-272.775.01v127.075c20.888-18.737 45.58-30.343 71.938-38.97a68.215 68.215 0 0 1-3.844-15.123h-50.506v-18.69h50.523a68.303 68.303 0 0 1 3.972-15.35c-26.465-8.725-51.23-20.37-72.082-38.94zm136.408 13.532c-27.628 0-50.226 22.598-50.226 50.227 0 27.627 22.598 50.224 50.226 50.224s50.225-22.597 50.225-50.225c0-27.63-22.597-50.227-50.225-50.227zm0 18.69c17.528 0 31.535 14.01 31.535 31.537 0 17.526-14.007 31.534-31.535 31.534-17.527 0-31.537-14.008-31.537-31.535 0-17.53 14.01-31.538 31.538-31.538zm-197.455 8.762-38.03 22.654 38.03 22.652v-45.306zm394.87.004v45.298l38.023-22.648-38.024-22.65zM232.907 319.56c-8.72 26.427-20.358 51.154-38.902 71.98h127.056c-18.717-20.87-30.32-45.54-38.943-71.872a68.199 68.199 0 0 1-15.138 3.865v50.43h-18.687V323.53a68.254 68.254 0 0 1-15.387-3.97zm-80.304 90.674v23.704h210.068v-23.704H152.604zm82.4 42.4 22.63 37.993 22.634-37.994h-45.264z"/></symbol><symbol id="religion-prikinity" viewBox="0 0 512 512"><path d="M235.346 22.574c-5.96 35.582-13.117 77.584-21.662 121.918-7.5 38.915-15.677 77.15-24.065 107.836-4.195 15.343-8.43 28.79-12.766 39.652-2.938 7.36-5.758 13.412-9.125 18.405 24.825 31.515 48.93 62.82 71.237 93.572a250.057 250.057 0 0 1 5.244-9.21c7.523-12.628 17.837-28.182 28.075-43.165s20.388-29.365 27.457-39.402c1.39-1.972 1.965-2.817 3.092-4.424-1.702-2.13-2.99-4.47-4.357-7.19-4.268-8.48-8.444-20.64-12.918-35.93-8.95-30.578-18.674-73.233-27.585-117.132-8.912-43.9-16.986-88.975-22.516-124.127-.052-.32-.064-.484-.114-.803zM285.54 190.54c1.596 7.14 3.195 14.058 4.792 20.81 49.34 20.072 84.05 68.448 84.05 125.076 0 9.046-.892 17.88-2.58 26.424 5.21 3.43 10.684 6.607 16.307 9.52a152.927 152.927 0 0 0 4.273-35.944c0-68.312-44.955-126.273-106.844-145.885zm-100.196 2.745c-57.786 21.875-98.96 77.766-98.96 143.14 0 9.073.795 17.962 2.315 26.604 5.18-3.613 10.8-7.414 16.523-11.507-.55-4.956-.84-9.992-.84-15.097 0-53.53 31.014-99.69 76.084-121.535a1441.252 1441.252 0 0 0 4.877-21.605zM321.418 337.44l-56.398 86.833c39.054 17.92 85.905 23.705 124.843 19.36 20.97-2.34 39.59-7.577 53.176-14.774 8.204-4.346 14.152-9.32 18.32-14.585-5.27-.66-11.096-1.665-17.778-3.132-14.25-3.13-31.137-8.177-48.12-15.426-28.752-12.274-58.282-30.866-74.044-58.278zm-174.322 1.187c-15.578 18.596-36.585 31.004-50.184 40.613-24.06 17-34.61 34.96-40.346 57.27-3.65 14.193-4.978 30.99-5.927 49.058 16.385-17.526 40.027-33.05 66.325-44.75 31.124-13.845 66.08-22.098 97.45-18.26-8.044-10.21-18.08-22.807-28.61-35.933-19.204-23.937-33.05-41.01-38.71-47.998zm12.152 106.508a211.553 211.553 0 0 0-20.627 6.344c26.933 23.612 62.197 37.946 100.763 37.946 33.2 0 63.95-10.624 89.05-28.643a265.47 265.47 0 0 1-26.283-4.77c-18.743 9.84-40.092 15.413-62.767 15.413-30.03 0-57.735-9.766-80.135-26.29z"/></symbol></svg>