<?xml version="1.0" encoding="UTF-8"?><!DOCTYPE svg PUBLIC "-//W3C//DTD SVG 1.1//EN" "http://www.w3.org/Graphics/SVG/1.1/DTD/svg11.dtd"><svg xmlns="http://www.w3.org/2000/svg" xmlns:xlink="http://www.w3.org/1999/xlink"><defs/><symbol id="feature-alchemy" viewBox="0 0 64 64"><path d="m51.739 19.155-6.871-6.871c-.796.422-1.611.811-2.464 1.131a18.851 18.851 0 0 0-6.759 4.353l-3.232 3.231H50.88c.261-.632.545-1.248.859-1.844zM58 22.999H5.998c-1.653 0-3 1.346-3 3s1.347 3 3 3H58c1.653 0 2.999-1.346 2.999-3s-1.346-3-2.999-3zM20.993 20.952c5.271-.474 9.483-4.681 9.961-9.952h-4.005a12.89 12.89 0 0 1-3.758 8.192 13.106 13.106 0 0 1-2.198 1.76zM54.596 15.048l-5.611-5.64a20.887 20.887 0 0 1-2.341 1.823l6.145 6.145a20.772 20.772 0 0 1 1.807-2.328zM56.702 14.33c.476.478 1.107.741 1.779.741s1.303-.263 1.777-.741a2.55 2.55 0 0 0 .001-3.589l-6.964-7C52.82 3.263 52.188 3 51.517 3s-1.303.263-1.777.741a2.55 2.55 0 0 0-.001 3.589zM21.012 6.835a1 1 0 1 1 1.973.329 25.11 25.11 0 0 1-4.932 11.251l-1.83 2.352a10.918 10.918 0 0 0 5.553-2.989A10.93 10.93 0 0 0 24.997 10V3.044c-5.599.507-9.999 5.227-9.999 10.955v5.085l1.476-1.897a23.092 23.092 0 0 0 4.538-10.352zM13 20.146l-.001-4.604a20.975 20.975 0 0 1-7.502-8.311l-.393-.784 1.788-.895.393.785a18.97 18.97 0 0 0 5.757 6.815c.094-1.452.417-2.843.951-4.127-2.629-3.506-6.642-5.7-10.994-5.991V6A14.993 14.993 0 0 0 13 20.146zM19.178 53.616a3.202 3.202 0 0 1 1.533 2.029c.19.794.054 1.599-.386 2.264-.24.363-.352.789-.321 1.232.07 1.025 1.037 1.859 2.155 1.859h19.679c1.119 0 2.086-.834 2.156-1.858a1.972 1.972 0 0 0-.321-1.232 2.86 2.86 0 0 1-.386-2.264 3.2 3.2 0 0 1 1.533-2.029C52.948 49 57.999 40.333 58 31H6c-.001 9.333 5.048 17.999 13.178 22.616zm34.49-18.789 1.97.345c-1.327 7.567-6.263 14.089-13.203 17.445l-.87-1.8c6.362-3.077 10.886-9.055 12.103-15.99zm-19.669-1.828h1.999v1.999h-1.999zm-2.001 0v1.999H7.999v-1.999z"/></symbol><symbol id="feature-crafting" viewBox="-23 -21 682 682.667"><path d="m435.113 249.04 122.875-122.884-39.386-38.828-122.598 122.598zM491.895 61.008 430.008 0 306.883 121.367l54.36 53.586-.114.106 8.36 8.355zM.25 568.922 72.355 640l48.66-47.934-71.59-71.59zM303.86 231.723l19.343 19.066L76.145 494.164l71.585 71.586L395.31 321.867l19.347 19.067 29.817-29.504-110-110zM625.578 192.777 584.7 152.484 461.63 275.551l9.5 9.504.902-.895 30.348 29.91 75.793 12.004 58.879-58.043zm0 0"/></symbol><symbol id="feature-magic" viewBox="-21 -41 682.665 682"><path d="M206.504 459.316c32.582-6.796 63.203-22.23 88.07-44.992a224.231 224.231 0 0 1-16.422-24.562c-51.906-89.907-33.48-205.203 41.864-274.614 21.859 20.055 39.21 43.989 51.375 70.54 39.652 5.675 77.71 17.914 112.902 36.16-6.398-35.352-18.7-69.57-36.465-100.996C419.84 71.359 378.875 30.09 329.375 1.512a18.74 18.74 0 0 0-18.75 0c-74.023 42.734-126.973 111.742-149.098 194.304-22.125 82.567-10.77 168.801 31.97 242.825a324.39 324.39 0 0 0 13.007 20.675zm0 0"/><path d="M546.273 313.25c-60.445-60.441-140.8-93.727-226.273-93.727-8.168 0-16.312.313-24.414.922-10.406 31.618-12.348 65.856-5.07 98.774A225.393 225.393 0 0 1 320 317.277c103.813 0 194.445 73.598 216.887 173.555-21.352 6.703-43.504 10.094-66.047 10.094-6.93 0-13.813-.332-20.649-.965-24.757 31.55-54.41 58.426-87.843 79.797 34.707 12.465 71.465 18.93 108.554 18.93h.016c55.84 0 111.074-14.844 159.707-42.926A18.734 18.734 0 0 0 640 539.527c0-85.476-33.29-165.836-93.727-226.277zm0 0"/><path d="M446.504 438.633a322.324 322.324 0 0 0 11.41-21.606c-22.176-24.812-50.855-43.617-83.008-53.77a225.131 225.131 0 0 1-13.054 26.5c-39.586 68.571-113.426 111.161-192.696 111.161-22.55 0-44.703-3.387-66.066-10.098 6.437-28.957 18.492-55.96 35.406-79.765-14.906-37.168-23.34-76.223-25.133-115.809-27.41 23.211-50.906 50.934-69.234 82.027C15.258 426.258 0 482.363 0 539.527c0 6.7 3.574 12.891 9.375 16.235 48.633 28.078 103.863 42.922 159.715 42.922h.015c55.22 0 109.829-14.356 157.915-41.516 49.558-27.988 90.875-68.977 119.484-118.535zm0 0"/></symbol><symbol id="feature-talent" viewBox="-7 0 463 463.717"><path d="m229.816 225.734 16.454 16.457-21.68 10.848a131.254 131.254 0 0 0-28.336 19.137l15.832 15.832-42.352 42.336A19.439 19.439 0 0 1 156.078 336c-10.648 0-19.312-8.664-19.312-19.312v-3.84a38.746 38.746 0 0 0-23.446 15.336l-28.554 39.984c-16.504 23.105-35.864 43.418-57.758 60.816 29.719 6.368 61.52 1.938 88.191-12.87a331.674 331.674 0 0 0 73.438-55.403l62.418-62.422.03.031 18.419-22.105c13.086-15.695 29.933-27.192 49.133-33.59A78.796 78.796 0 0 1 318.03 202a78.529 78.529 0 0 1 10.903-24.672l4.527-6.785-26.445-15.871c-20.442 28.687-46.899 53.144-77.2 71.062zm0 0"/><path d="M199.95 372.023a347.625 347.625 0 0 1-76.985 58.075C101.87 441.816 77.973 448 53.855 448c-14.73 0-29.242-2.375-43.257-6.855-3.368 2.32-6.758 4.617-10.239 6.816 37.465 20.934 85.344 21.031 122.934.152a331.696 331.696 0 0 0 73.441-55.402l57.97-57.969a15.572 15.572 0 0 0 4.503-12.597c-.25-2.52-1.129-4.864-2.465-6.93zM424.32 28.434c.27-1.442.446-2.914.446-4.434 0-13.23-10.766-24-24-24-13.23 0-24 10.77-24 24s10.77 24 24 24c5.664 0 10.808-2.055 14.914-5.344 11.039 13.07 17.086 29.422 17.086 46.719 0 12.273-4.977 24.29-13.657 32.969S398.414 136 386.141 136c-8.461 0-16.903-1.207-25.102-3.344.777-.824 1.48-1.719 2.281-2.511a129.182 129.182 0 0 0 24.285-33.704 49.116 49.116 0 0 0 5.16-21.875V63.2c-8.175-1.664-15.39-5.886-20.933-11.719-13.715 7.024-25.066 18.399-31.953 32.176a73.185 73.185 0 0 0-5.504 14.887l-.93 3.723c-1.406 5.62-3.285 11.078-5.437 16.414l-15.035-7.52C293.14 101.246 270.94 96 248.773 96h-8c-39.703 0-72 32.297-72 72h16c0-30.871 25.13-56 56-56h8c19.696 0 39.426 4.656 57.051 13.473l15.317 7.664c-1.559 2.773-3.192 5.52-4.965 8.191l-.098.137 26.274 15.765 5.328-8c.726-1.093 1.582-2.101 2.351-3.175 11.649 3.832 23.864 5.953 36.121 5.953 16.485 0 32.621-6.688 44.278-18.344s18.336-27.8 18.336-44.289c0-22.727-8.582-44.11-24.446-60.941zM408.766 32h-16V16h16zm0 0"/></symbol><symbol id="main-economy" viewBox="0 0 64 64"><path d="M13 57v-2.586L9.586 51H7v2.586L10.414 57zM6.414 49h2.968l1-2H4.414zM16.312 51.726l-4.038-4.038-1.057 2.115 2.98 2.98zM9 32c0 .58 2.453 2 7 2 .767 0 1.507-.055 2.227-.137.132-.321.324-.608.553-.863a2.992 2.992 0 0 1-.597-1.004c-.062 0-.121.004-.183.004-2.56 0-5.134-.452-6.87-1.33C9.556 31.174 9 31.782 9 32zM9 36c0 .58 2.453 2 7 2 1.28 0 2.524-.124 3.625-.349a2.993 2.993 0 0 1-1.477-1.769c-.7.07-1.414.118-2.148.118-2.626 0-5.264-.477-7-1.4z"/><ellipse cx="26" cy="47" rx="7" ry="2"/><path d="M11 28c0 .58 2.453 2 7 2 .063 0 .123-.004.186-.004.133-.372.335-.708.595-.996a2.982 2.982 0 0 1-.656-1.193c-1.61-.22-3.202-.647-4.361-1.316C11.828 26.986 11 27.703 11 28zM6 43c0 .58 2.453 2 7 2s7-1.42 7-2v-1.4c-1.736.923-4.374 1.4-7 1.4s-5.264-.477-7-1.4zM6 39c0 .58 2.453 2 7 2 3.082 0 5.198-.652 6.244-1.253-1.02.161-2.108.253-3.244.253-3.326 0-6.678-.761-8.181-2.23C6.473 38.252 6 38.799 6 39zM33 29c.357 0 .67-.192.847-.487l-.338-1.354A.983.983 0 0 0 33 27a1 1 0 0 0 0 2z"/><circle cx="33" cy="36" r="1"/><path d="M34.232 38.728C36.858 38.264 38 37.35 38 37v-1.389c-.567.302-1.255.559-2.039.773a2.994 2.994 0 0 1-1.729 2.344zM34.906 47.601c.072.019.138.042.209.062-.067-.034-.13-.07-.194-.106-.004.015-.01.029-.015.044z"/><circle cx="33" cy="32" r="1"/><path d="M30 53c4.547 0 7-1.42 7-2 0-.353-1.081-1.202-3.525-1.678C31.772 50.428 28.878 51 26 51c-.984 0-1.968-.07-2.909-.202-.063.087-.091.157-.091.202 0 .58 2.453 2 7 2zM35.22 34c.121.135.231.278.327.433A8.516 8.516 0 0 0 36.749 34zM41 42c0-.366-1.265-1.385-4.35-1.816-.86.286-1.814.491-2.774.623A2.995 2.995 0 0 1 31 43c-.395 0-.77-.081-1.116-.22a3.022 3.022 0 0 1-.207.547c.756.139 1.468.323 2.114.55.711.081 1.453.123 2.209.123 4.547 0 7-1.42 7-2z"/><circle cx="27" cy="42" r="1"/><circle cx="21" cy="31" r="1"/><path d="M21.094 51.601A2.15 2.15 0 0 1 21 51c0-.175.025-.38.089-.602C18.722 49.76 17 48.618 17 47c0-.135.019-.265.043-.394-.846.175-1.752.289-2.675.347L19 51.586v.819c.584-.315 1.283-.586 2.094-.804z"/><circle cx="21" cy="27" r="1"/><path d="M51 47.974c3.903-.188 6-1.438 6-1.974v-1.4c-1.516.805-3.717 1.27-6 1.375zM57 34c0 1.859-1.279 3.411-3 3.858v.533c.84.17 1.585.389 2.229.651A5.989 5.989 0 0 0 59 34c0-2.857-2.032-5.285-4.753-5.863l-.485 1.94A4.003 4.003 0 0 1 57 34zM53.955 40.418c-.256 1.325-1.725 2.292-3.716 2.885.221.233.393.463.505.683C54.812 43.842 57 42.547 57 42c0-.338-.937-1.096-3.045-1.582zM25 27.612V29c0 .434 1.63 1.588 5.213 1.908.133-.338.328-.642.567-.908a3 3 0 0 1-.62-1.077c-1.935-.165-3.813-.599-5.16-1.311z"/><circle cx="31" cy="40" r="1"/><path d="M14 24c0 .37 1.292 1.367 4.255 1.799A3 3 0 0 1 21 24a2.98 2.98 0 0 1 2.022.798c.09-.976.815-1.769 1.931-2.373A17.943 17.943 0 0 0 21 22c-4.547 0-7 1.42-7 2zM25 17.271A2.002 2.002 0 0 0 24 17a2.002 2.002 0 0 0-1.707 3.041c.95.055 1.861.169 2.707.341zM24 42c0-.065.015-.126.019-.19-.319.116-.66.19-1.019.19-.352 0-.686-.072-1-.184V43c0 .135-.019.265-.043.394a19.032 19.032 0 0 1 2.251-.318A2.965 2.965 0 0 1 24 42z"/><circle cx="21" cy="35" r="1"/><circle cx="23" cy="39" r="1"/><path d="M30.78 34a3 3 0 0 1-.62-1.077c-1.685-.143-3.325-.491-4.611-1.048C24.395 32.336 24 32.821 24 33c0 .545 2.163 1.829 6.189 1.984.134-.367.334-.699.591-.984zM30.22 37.116c-.017-.042-.026-.088-.041-.131-2.376-.089-4.681-.57-6.237-1.416-.037.19-.092.372-.163.547A2.994 2.994 0 0 1 26 39c0 .065-.015.126-.019.19.319-.116.66-.19 1.019-.19.395 0 .77.081 1.116.22a2.993 2.993 0 0 1 2.104-2.104zM10.618 59l-1 2h5.968l-2-2zM5 50.414l-2-2v5.968l2-1zM3.688 56.274l4.038 4.038 1.057-2.115-2.98-2.98zM15 57.586l2 2v-5.968l-2 1zM10.828 13h.758L13 11.586v-.758c0-1.534-.622-3.036-1.707-4.121S8.706 5 7.172 5A2.175 2.175 0 0 0 5 7.172c0 1.534.622 3.036 1.707 4.121S9.294 13 10.828 13zM8.591 15.995l1.091-1.091a7.889 7.889 0 0 1-4.389-2.197 7.868 7.868 0 0 1-1.972-3.341 1.17 1.17 0 0 0-.321.806c0 1.534.622 3.036 1.707 4.121a5.874 5.874 0 0 0 3.884 1.702zM19 57.6V59c0 .58 2.453 2 7 2s7-1.42 7-2v-1.4c-1.736.923-4.374 1.4-7 1.4s-5.264-.477-7-1.4zM14.904 9.682l1.091-1.091a5.881 5.881 0 0 0-1.702-3.884A5.868 5.868 0 0 0 10.172 3a1.17 1.17 0 0 0-.806.321 7.868 7.868 0 0 1 3.341 1.972 7.876 7.876 0 0 1 2.197 4.389zM3.664 4.932c.326-.51.758-.942 1.268-1.268A.992.992 0 0 0 4 3H3v1c0 .433.279.793.664.932zM47.418 43.863c-.789.09-1.604.137-2.418.137-.987 0-1.936-.078-2.851-.203-1.202 1.15-3.542 1.858-6.108 2.103 1.124.553 3.138 1.1 5.959 1.1 4.547 0 7-1.42 7-2 0-.141-.307-.636-1.582-1.137zM61 51c0-.413-1.535-1.565-5.123-1.908-1.454.526-3.264.828-5.115.893-.183.371-.471.708-.841 1.012.735.609 1.006 1.238 1.062 1.766A18.95 18.95 0 0 0 54 53c4.547 0 7-1.42 7-2zM51 54.787v1.982c.939.152 1.96.231 3 .231 4.547 0 7-1.42 7-2v-1.4c-1.736.923-4.374 1.4-7 1.4-1.028 0-2.043-.076-3-.213zM52 36c0-.58-2.453-2-7-2h-5v3c0 .096-.015.186-.026.278 1.35.456 3.149.722 5.026.722 4.547 0 7-1.42 7-2zM35 55.612V57c0 .58 2.453 2 7 2s7-1.42 7-2v-1.4c-1.736.923-4.374 1.4-7 1.4-2.484 0-5.206-.439-7-1.388zM36.879 48.337c1.252.642 1.978 1.476 2.085 2.426.95.155 1.982.237 3.036.237 4.547 0 7-1.42 7-2v-1.4c-1.736.923-4.374 1.4-7 1.4-1.799 0-3.602-.226-5.121-.663zM47.918 52.078C46.259 52.686 44.126 53 42 53c-1.296 0-2.564-.119-3.721-.334-.491.52-1.204.957-2.072 1.305C37.406 54.523 39.418 55 42 55c4.547 0 7-1.42 7-2 0-.164-.302-.539-1.082-.922zM30 55c-2.878 0-5.772-.572-7.475-1.678C20.081 53.798 19 54.646 19 55c0 .58 2.453 2 7 2s7-1.42 7-2c0-.045-.028-.115-.091-.202-.941.132-1.925.202-2.909.202zM48 18c0-1.103-.897-2-2-2a2 2 0 0 0-1.85 1.247l1.545 2.705c.102.015.2.048.305.048 1.103 0 2-.897 2-2zM37.604 21.81c1.176.391 2.134.923 2.73 1.589l2.077-3.636A3.987 3.987 0 0 1 42 18c0-.223.031-.438.066-.652zM30.414 19l-2 2h5.968l-1-2zM12.914 14.5l3.201 3.201a7.926 7.926 0 0 1 .79-2.382L14.5 12.914z"/><path d="M50 18a4.005 4.005 0 0 1-3.183 3.915l1.016 1.778C50.279 22.906 52 20.625 52 18c0-3.309-2.691-6-6-6a5.943 5.943 0 0 0-3 .823v2.559A3.974 3.974 0 0 1 46 14c2.206 0 4 1.794 4 4zM42.981 41.885c.654.068 1.324.115 2.019.115 4.547 0 7-1.42 7-2v-1.4c-1.736.923-4.374 1.4-7 1.4-1.226 0-2.411-.103-3.499-.291.912.611 1.435 1.351 1.48 2.176zM53.971 35.737A1.993 1.993 0 0 0 55 34a1.997 1.997 0 0 0-1.726-1.972l-.469 1.875c.667.511 1.081 1.125 1.166 1.834z"/><path d="m44 21.016-3.478 6.085-5.182-.864L36.781 32h14.438l1.441-5.763-5.182.864zM37 11h-2.586L31 14.414V17h2.586L37 13.586z"/><path d="M30.213 26.908a2.999 2.999 0 0 1 2.757-1.905l-.31-1.24 6.263 1.044C38.496 24.155 36.104 23 32 23c-4.547 0-7 1.42-7 2 0 .434 1.63 1.588 5.213 1.908zM40.312 16.274l-2.115-1.057-2.98 2.98 1.057 2.115zM20.148 20.017A3.95 3.95 0 0 1 20 19c0-2.206 1.794-4 4-4 .342 0 .675.058 1 .143v-2.051A5.97 5.97 0 0 0 24 13c-3.309 0-6 2.691-6 6 0 .406.053.804.132 1.196.656-.09 1.332-.152 2.016-.179zM29 14.618l-2-1v5.968l2-2zM39 13.382l2 1V8.414l-2 2zM37.586 9l2-2h-5.968l1 2zM32.783 9.803l-1.057-2.115-4.038 4.038 2.115 1.057z"/></symbol><symbol id="main-npc" viewBox="0 0 512 512"><path d="m111.729 390.71-9.742-57.273-3.291-.821a24.472 24.472 0 0 1-6.937 4.414c-7.7 3.241-16.117 2.252-22.677-1.906l7.139 41.968h-59.86C7.325 377.092 0 384.417 0 393.453c0 9.036 7.325 16.361 16.361 16.361h79.238c10.132 0 17.827-9.128 16.13-19.104zM154.082 346.436l-.151 46.965c-.029 9.035 7.272 16.385 16.309 16.413h.053c9.011 0 16.331-7.291 16.36-16.309l.126-38.911-32.697-8.158zM136.731 120.295c-.81-1.911-3.663-1.475-3.851.605a32.306 32.306 0 0 1-9.364 19.957 29.286 29.286 0 0 0-16.016-4.745 29.278 29.278 0 0 0-16.246 4.893 32.314 32.314 0 0 1-9.51-20.106c-.186-2.072-3.038-2.523-3.851-.605-4.57 10.779-2.812 22.649 3.593 31.484a29.29 29.29 0 0 0-3.418 13.765c0 16.254 13.177 29.431 29.431 29.431s29.431-13.176 29.431-29.431c0-5.096-1.296-9.889-3.575-14.069 6.227-8.802 7.894-20.524 3.376-31.179zM47.858 295.994l-38.03-9.49a6.193 6.193 0 1 0-2.998 12.018l47.033 11.737-6.005-14.265zM260.866 351.951l-37.254-20.437a3.189 3.189 0 0 0-4.632 2.053l-1.158 4.84-111.335-27.783a24.495 24.495 0 0 1-1.292 12.444l109.744 27.385-1.174 4.905a3.189 3.189 0 0 0 3.201 3.927l42.469-1.354c3.219-.103 4.273-4.421 1.431-5.98z"/><path d="m171.462 298.11-31.088-1.74v-52.842l23.256 14.482a13.091 13.091 0 0 0 10.659 1.432l46.137-13.759a75.827 75.827 0 0 1-6.488-25.382l-41.478 12.37c-22.88-14.247-34.13-21.186-39.65-24.562a21.7 21.7 0 0 0-11.328-3.186H85.036c-10.98 0-19.881 8.901-19.881 19.881v4.465l14.378-11.034-29.208 36.436a13.091 13.091 0 0 0-1.851 13.265l21.701 51.553c2.838 6.742 10.66 9.861 17.373 6.886 6.586-2.919 9.381-10.802 6.586-17.442l-18.508-43.969 24.333-30.353-12.954 27.862 15.106 35.888 84.783 21.156.016-5.019c.027-8.701-6.76-15.902-15.448-16.388zM340.098 236.342c-61.101 2.447-57.432 2.311-58.213 2.311-12.965 0-23.726-10.243-24.249-23.314-.536-13.402 9.893-24.702 23.294-25.238l50.114-2.006 12.852-8.983c-11.496-17.508-31.294-29.078-53.804-29.078-35.53 0-64.334 28.803-64.334 64.334s28.803 64.334 64.334 64.334c29.11-.001 53.692-19.34 61.63-45.868a24.285 24.285 0 0 1-11.624 3.508zM506.352 381.089l-56.49-48.946-9.754-35.909c-6.732 8.054-18.17 11.157-28.35 6.872a24.649 24.649 0 0 1-4.332-2.357l12.163 44.783a16.359 16.359 0 0 0 5.075 8.076l60.258 52.211c6.83 5.918 17.163 5.177 23.079-1.651 5.921-6.83 5.181-17.163-1.649-23.079z"/><path d="m453.193 220.747-29.207-36.436 14.377 11.033v-4.465c0-10.98-8.901-19.881-19.881-19.881h-37.129a19.907 19.907 0 0 0-11.382 3.574 29446.575 29446.575 0 0 0-35.201 24.58l-53.021 2.123c-7.059.283-12.91 5.964-12.936 13.03-.027 7.525 6.226 13.448 13.613 13.142l57.224-2.291a13.105 13.105 0 0 0 6.976-2.35l16.52-11.548v63.225l-35.555 26.919a16.363 16.363 0 0 0-6.486 13.097l.255 79.008c.029 9.015 7.345 16.308 16.36 16.308h.053c9.036-.029 16.338-7.378 16.309-16.413l-.228-70.84 39.195-29.675h7.053a24.664 24.664 0 0 1-1.967-4.243 24.467 24.467 0 0 1 .528-17.68l17.854-42.416-12.955-27.863 24.333 30.354-18.676 44.369c-2.804 6.663.323 14.338 6.986 17.142 6.658 2.803 14.336-.32 17.142-6.986l21.7-51.552a13.097 13.097 0 0 0-1.854-13.265z"/><circle cx="396.019" cy="131.615" r="29.43"/></symbol><symbol id="main-politic" viewBox="0 0 56 56"><g><path d="M18.648 26.612c-.043-.063-.086-.129-.132-.186a16.585 16.585 0 0 0-4.1-4.2 3.205 3.205 0 0 0-2.407-.6 4.11 4.11 0 0 0-2.47 2.047c-1.786 2.8-.633 4.435.648 5.311a15.555 15.555 0 0 0 5.01 2.142c.128-.037.245-.063.369-.1.035-.243.084-.484.146-.722a6 6 0 0 1 2.418-3.385c.167-.111.34-.214.518-.307zM21.142 15.688a5.007 5.007 0 0 1 2.186-.741A16.649 16.649 0 0 0 19 9.294a18.272 18.272 0 0 0-3.507 4.04A8.958 8.958 0 0 0 14 18a7.3 7.3 0 0 0 .3 1.933c.438.164.855.378 1.245.636A16.4 16.4 0 0 1 18.23 22.9c.052-1.308.249-2.606.587-3.871a5.584 5.584 0 0 1 2.325-3.341zM15.574 33.1a.963.963 0 0 1-.118.028 17.484 17.484 0 0 0-5.531 2.7 3.266 3.266 0 0 0-1.379 2.135A3.975 3.975 0 0 0 9.7 40.868c2.109 2.515 4.063 1.891 5.329.924a16.233 16.233 0 0 0 3.882-4.416v-.084a5.992 5.992 0 0 1-3.284-4.212zM46.488 11.446 50.8 7.139a4.789 4.789 0 0 1-1.294-.9A4.811 4.811 0 0 1 48.6 4.94l-4.31 4.307a8.117 8.117 0 0 1 2.2 2.2z"/><path d="M16.245 43.383a5.753 5.753 0 0 1-3.438 1.234l-3.1 3.091a1 1 0 1 1-1.412-1.416l2.226-2.219a7.372 7.372 0 0 1-2.351-1.922c-.025-.03-.045-.06-.069-.09l-2.838 2.861L.9 55.1l10.175-4.36 8.4-8.4a18.18 18.18 0 0 1-.352-1.791 16.762 16.762 0 0 1-2.878 2.834zM25.565 17.153a4.111 4.111 0 0 0-3.353.225 3.687 3.687 0 0 0-1.466 2.179 17.6 17.6 0 0 0-.48 5.879l.041.059c.106.162.2.314.3.462.345-.055.694-.08 1.044-.077a6.033 6.033 0 0 1 3.9 1.568c.008-.013.015-.025.024-.037l.068-.1.077-.112a17.859 17.859 0 0 0 2.753-5.516 3.69 3.69 0 0 0-.145-2.622 4.112 4.112 0 0 0-2.763-1.908zM29.112 25.484l7.173-7.173-2.336-2.336-3.426 3.425c.184.935.143 1.9-.119 2.815a17.373 17.373 0 0 1-1.292 3.269zM26.814 29.077a6.015 6.015 0 0 1 .491 4.4v.013c-.09.297-.202.587-.335.868l.061.016c.05.012.098.028.145.048.183.071.372.13.563.175 1.615.471 3.298.667 4.978.581.333-.014.664-.07.983-.168 1.6-.485 2.369-1.849 2.3-4.055A4.171 4.171 0 0 0 34.983 28a3.157 3.157 0 0 0-2.433-.779 13.657 13.657 0 0 0-3.07.552c-.782.222-1.547.499-2.29.829-.126.165-.252.316-.376.475zM7.884 21.172c.137.253.29.497.457.731a5.57 5.57 0 0 1 3.259-2.237c.182-.03.366-.047.55-.053A8.982 8.982 0 0 1 12 18c.04-1.702.494-3.368 1.324-4.854a18.107 18.107 0 0 0-5.071-2c-.695 1.779-2.22 6.525-.369 10.026zM49.9 23.759a1 1 0 0 1-1.136-.2l-3.78-3.779a1 1 0 0 1 0-1.414c1.6-1.6 1.2-4.615-.9-6.716s-5.113-2.5-6.715-.9a1 1 0 0 1-1.414 0l-3.78-3.779a1 1 0 0 1-.2-1.137 2.824 2.824 0 1 0-4.547.792l7.221 7.222h.006l7.23 7.23 7.218 7.219a2.9 2.9 0 0 0 4.006 0 2.823 2.823 0 0 0-3.209-4.538zm-7.115-7.588a1 1 0 0 1-1.414 0l-1.806-1.807a1 1 0 0 1 1.414-1.414l1.806 1.807a1 1 0 0 1 0 1.414zM24.7 34.308c.306-.407.534-.867.674-1.356a4.013 4.013 0 0 0-3.771-5.072 3.35 3.35 0 0 0-1.176.154.912.912 0 0 1-.144.034c-.363.12-.708.289-1.027.5a4 4 0 0 0-1.614 2.253 4.448 4.448 0 0 0-.144 1.018c0 .037.008.124.009.162a3.989 3.989 0 0 0 2.743 3.683l.1.031a4.018 4.018 0 0 0 4.35-1.407zM50.915.814a2.832 2.832 0 0 0 0 4.006 2.9 2.9 0 0 0 4.005 0A2.832 2.832 0 1 0 50.915.814zM32.171 25.253c.087-.007.179-.027.265-.031a5.23 5.23 0 0 1 3.161.728l4.167-4.16-2.064-2.065zM27.732 47.52a7.805 7.805 0 0 1-2.565.468 5.132 5.132 0 0 1-3.151-1.021c.008.515.073 1.027.193 1.527.958 3.861 5.246 6.385 6.949 7.25a17.741 17.741 0 0 0 2.642-5.562 12.191 12.191 0 0 1-4.043-2.673zM33.822 37.036a5.906 5.906 0 0 1-1 .143c-.306.02-.616.03-.93.03-.84-.004-1.68-.074-2.509-.209a17.607 17.607 0 0 1 1.917 3.446 4.837 4.837 0 0 1-1.667 6.123 11.478 11.478 0 0 0 3.667 2.082c1.292.465 2.63.79 3.992.969.515-1.842 1.56-6.712-.621-10.019a8.347 8.347 0 0 0-2.849-2.565z"/><path d="M27.06 45.636c.177-.065.358-.132.522-.21 2.521-1.11 2.4-2.909 1.863-4.227a16.951 16.951 0 0 0-2.917-4.638l-.025-.027-.019-.02c-.02-.021-.041-.04-.059-.063-.064-.078-.134-.154-.2-.231-.06-.019-.119-.032-.178-.057s-.158-.052-.24-.08a5.951 5.951 0 0 1-4.276 1.81c-.2 0-.4-.021-.6-.041.004 1.529.21 3.05.616 4.524.129.45.28.894.453 1.329.044.1.089.211.144.312.646 1.318 2.013 2.636 4.916 1.619z"/></g></symbol></svg>