<svg height="682pt" viewBox="-23 -21 682 682.667" width="682pt" xmlns="http://www.w3.org/2000/svg"><path d="m435.113 249.04 122.875-122.884-39.386-38.828-122.598 122.598zM491.895 61.008 430.008 0 306.883 121.367l54.36 53.586-.114.106 8.36 8.355zM.25 568.922 72.355 640l48.66-47.934-71.59-71.59zM303.86 231.723l19.343 19.066L76.145 494.164l71.585 71.586L395.31 321.867l19.347 19.067 29.817-29.504-110-110zM625.578 192.777 584.7 152.484 461.63 275.551l9.5 9.504.902-.895 30.348 29.91 75.793 12.004 58.879-58.043zm0 0"/></svg>