<svg height="682pt" viewBox="-21 -41 682.665 682" width="682pt" xmlns="http://www.w3.org/2000/svg"><path d="M206.504 459.316c32.582-6.796 63.203-22.23 88.07-44.992a224.231 224.231 0 0 1-16.422-24.562c-51.906-89.907-33.48-205.203 41.864-274.614 21.859 20.055 39.21 43.989 51.375 70.54 39.652 5.675 77.71 17.914 112.902 36.16-6.398-35.352-18.7-69.57-36.465-100.996C419.84 71.359 378.875 30.09 329.375 1.512a18.74 18.74 0 0 0-18.75 0c-74.023 42.734-126.973 111.742-149.098 194.304-22.125 82.567-10.77 168.801 31.97 242.825a324.39 324.39 0 0 0 13.007 20.675zm0 0"/><path d="M546.273 313.25c-60.445-60.441-140.8-93.727-226.273-93.727-8.168 0-16.312.313-24.414.922-10.406 31.618-12.348 65.856-5.07 98.774A225.393 225.393 0 0 1 320 317.277c103.813 0 194.445 73.598 216.887 173.555-21.352 6.703-43.504 10.094-66.047 10.094-6.93 0-13.813-.332-20.649-.965-24.757 31.55-54.41 58.426-87.843 79.797 34.707 12.465 71.465 18.93 108.554 18.93h.016c55.84 0 111.074-14.844 159.707-42.926A18.734 18.734 0 0 0 640 539.527c0-85.476-33.29-165.836-93.727-226.277zm0 0"/><path d="M446.504 438.633a322.324 322.324 0 0 0 11.41-21.606c-22.176-24.812-50.855-43.617-83.008-53.77a225.131 225.131 0 0 1-13.054 26.5c-39.586 68.571-113.426 111.161-192.696 111.161-22.55 0-44.703-3.387-66.066-10.098 6.437-28.957 18.492-55.96 35.406-79.765-14.906-37.168-23.34-76.223-25.133-115.809-27.41 23.211-50.906 50.934-69.234 82.027C15.258 426.258 0 482.363 0 539.527c0 6.7 3.574 12.891 9.375 16.235 48.633 28.078 103.863 42.922 159.715 42.922h.015c55.22 0 109.829-14.356 157.915-41.516 49.558-27.988 90.875-68.977 119.484-118.535zm0 0"/></svg>