<svg height="512" viewBox="0 0 64 64" width="512" xmlns="http://www.w3.org/2000/svg"><path d="M13 57v-2.586L9.586 51H7v2.586L10.414 57zM6.414 49h2.968l1-2H4.414zM16.312 51.726l-4.038-4.038-1.057 2.115 2.98 2.98zM9 32c0 .58 2.453 2 7 2 .767 0 1.507-.055 2.227-.137.132-.321.324-.608.553-.863a2.992 2.992 0 0 1-.597-1.004c-.062 0-.121.004-.183.004-2.56 0-5.134-.452-6.87-1.33C9.556 31.174 9 31.782 9 32zM9 36c0 .58 2.453 2 7 2 1.28 0 2.524-.124 3.625-.349a2.993 2.993 0 0 1-1.477-1.769c-.7.07-1.414.118-2.148.118-2.626 0-5.264-.477-7-1.4z"/><ellipse cx="26" cy="47" rx="7" ry="2"/><path d="M11 28c0 .58 2.453 2 7 2 .063 0 .123-.004.186-.004.133-.372.335-.708.595-.996a2.982 2.982 0 0 1-.656-1.193c-1.61-.22-3.202-.647-4.361-1.316C11.828 26.986 11 27.703 11 28zM6 43c0 .58 2.453 2 7 2s7-1.42 7-2v-1.4c-1.736.923-4.374 1.4-7 1.4s-5.264-.477-7-1.4zM6 39c0 .58 2.453 2 7 2 3.082 0 5.198-.652 6.244-1.253-1.02.161-2.108.253-3.244.253-3.326 0-6.678-.761-8.181-2.23C6.473 38.252 6 38.799 6 39zM33 29c.357 0 .67-.192.847-.487l-.338-1.354A.983.983 0 0 0 33 27a1 1 0 0 0 0 2z"/><circle cx="33" cy="36" r="1"/><path d="M34.232 38.728C36.858 38.264 38 37.35 38 37v-1.389c-.567.302-1.255.559-2.039.773a2.994 2.994 0 0 1-1.729 2.344zM34.906 47.601c.072.019.138.042.209.062-.067-.034-.13-.07-.194-.106-.004.015-.01.029-.015.044z"/><circle cx="33" cy="32" r="1"/><path d="M30 53c4.547 0 7-1.42 7-2 0-.353-1.081-1.202-3.525-1.678C31.772 50.428 28.878 51 26 51c-.984 0-1.968-.07-2.909-.202-.063.087-.091.157-.091.202 0 .58 2.453 2 7 2zM35.22 34c.121.135.231.278.327.433A8.516 8.516 0 0 0 36.749 34zM41 42c0-.366-1.265-1.385-4.35-1.816-.86.286-1.814.491-2.774.623A2.995 2.995 0 0 1 31 43c-.395 0-.77-.081-1.116-.22a3.022 3.022 0 0 1-.207.547c.756.139 1.468.323 2.114.55.711.081 1.453.123 2.209.123 4.547 0 7-1.42 7-2z"/><circle cx="27" cy="42" r="1"/><circle cx="21" cy="31" r="1"/><path d="M21.094 51.601A2.15 2.15 0 0 1 21 51c0-.175.025-.38.089-.602C18.722 49.76 17 48.618 17 47c0-.135.019-.265.043-.394-.846.175-1.752.289-2.675.347L19 51.586v.819c.584-.315 1.283-.586 2.094-.804z"/><circle cx="21" cy="27" r="1"/><path d="M51 47.974c3.903-.188 6-1.438 6-1.974v-1.4c-1.516.805-3.717 1.27-6 1.375zM57 34c0 1.859-1.279 3.411-3 3.858v.533c.84.17 1.585.389 2.229.651A5.989 5.989 0 0 0 59 34c0-2.857-2.032-5.285-4.753-5.863l-.485 1.94A4.003 4.003 0 0 1 57 34zM53.955 40.418c-.256 1.325-1.725 2.292-3.716 2.885.221.233.393.463.505.683C54.812 43.842 57 42.547 57 42c0-.338-.937-1.096-3.045-1.582zM25 27.612V29c0 .434 1.63 1.588 5.213 1.908.133-.338.328-.642.567-.908a3 3 0 0 1-.62-1.077c-1.935-.165-3.813-.599-5.16-1.311z"/><circle cx="31" cy="40" r="1"/><path d="M14 24c0 .37 1.292 1.367 4.255 1.799A3 3 0 0 1 21 24a2.98 2.98 0 0 1 2.022.798c.09-.976.815-1.769 1.931-2.373A17.943 17.943 0 0 0 21 22c-4.547 0-7 1.42-7 2zM25 17.271A2.002 2.002 0 0 0 24 17a2.002 2.002 0 0 0-1.707 3.041c.95.055 1.861.169 2.707.341zM24 42c0-.065.015-.126.019-.19-.319.116-.66.19-1.019.19-.352 0-.686-.072-1-.184V43c0 .135-.019.265-.043.394a19.032 19.032 0 0 1 2.251-.318A2.965 2.965 0 0 1 24 42z"/><circle cx="21" cy="35" r="1"/><circle cx="23" cy="39" r="1"/><path d="M30.78 34a3 3 0 0 1-.62-1.077c-1.685-.143-3.325-.491-4.611-1.048C24.395 32.336 24 32.821 24 33c0 .545 2.163 1.829 6.189 1.984.134-.367.334-.699.591-.984zM30.22 37.116c-.017-.042-.026-.088-.041-.131-2.376-.089-4.681-.57-6.237-1.416-.037.19-.092.372-.163.547A2.994 2.994 0 0 1 26 39c0 .065-.015.126-.019.19.319-.116.66-.19 1.019-.19.395 0 .77.081 1.116.22a2.993 2.993 0 0 1 2.104-2.104zM10.618 59l-1 2h5.968l-2-2zM5 50.414l-2-2v5.968l2-1zM3.688 56.274l4.038 4.038 1.057-2.115-2.98-2.98zM15 57.586l2 2v-5.968l-2 1zM10.828 13h.758L13 11.586v-.758c0-1.534-.622-3.036-1.707-4.121S8.706 5 7.172 5A2.175 2.175 0 0 0 5 7.172c0 1.534.622 3.036 1.707 4.121S9.294 13 10.828 13zM8.591 15.995l1.091-1.091a7.889 7.889 0 0 1-4.389-2.197 7.868 7.868 0 0 1-1.972-3.341 1.17 1.17 0 0 0-.321.806c0 1.534.622 3.036 1.707 4.121a5.874 5.874 0 0 0 3.884 1.702zM19 57.6V59c0 .58 2.453 2 7 2s7-1.42 7-2v-1.4c-1.736.923-4.374 1.4-7 1.4s-5.264-.477-7-1.4zM14.904 9.682l1.091-1.091a5.881 5.881 0 0 0-1.702-3.884A5.868 5.868 0 0 0 10.172 3a1.17 1.17 0 0 0-.806.321 7.868 7.868 0 0 1 3.341 1.972 7.876 7.876 0 0 1 2.197 4.389zM3.664 4.932c.326-.51.758-.942 1.268-1.268A.992.992 0 0 0 4 3H3v1c0 .433.279.793.664.932zM47.418 43.863c-.789.09-1.604.137-2.418.137-.987 0-1.936-.078-2.851-.203-1.202 1.15-3.542 1.858-6.108 2.103 1.124.553 3.138 1.1 5.959 1.1 4.547 0 7-1.42 7-2 0-.141-.307-.636-1.582-1.137zM61 51c0-.413-1.535-1.565-5.123-1.908-1.454.526-3.264.828-5.115.893-.183.371-.471.708-.841 1.012.735.609 1.006 1.238 1.062 1.766A18.95 18.95 0 0 0 54 53c4.547 0 7-1.42 7-2zM51 54.787v1.982c.939.152 1.96.231 3 .231 4.547 0 7-1.42 7-2v-1.4c-1.736.923-4.374 1.4-7 1.4-1.028 0-2.043-.076-3-.213zM52 36c0-.58-2.453-2-7-2h-5v3c0 .096-.015.186-.026.278 1.35.456 3.149.722 5.026.722 4.547 0 7-1.42 7-2zM35 55.612V57c0 .58 2.453 2 7 2s7-1.42 7-2v-1.4c-1.736.923-4.374 1.4-7 1.4-2.484 0-5.206-.439-7-1.388zM36.879 48.337c1.252.642 1.978 1.476 2.085 2.426.95.155 1.982.237 3.036.237 4.547 0 7-1.42 7-2v-1.4c-1.736.923-4.374 1.4-7 1.4-1.799 0-3.602-.226-5.121-.663zM47.918 52.078C46.259 52.686 44.126 53 42 53c-1.296 0-2.564-.119-3.721-.334-.491.52-1.204.957-2.072 1.305C37.406 54.523 39.418 55 42 55c4.547 0 7-1.42 7-2 0-.164-.302-.539-1.082-.922zM30 55c-2.878 0-5.772-.572-7.475-1.678C20.081 53.798 19 54.646 19 55c0 .58 2.453 2 7 2s7-1.42 7-2c0-.045-.028-.115-.091-.202-.941.132-1.925.202-2.909.202zM48 18c0-1.103-.897-2-2-2a2 2 0 0 0-1.85 1.247l1.545 2.705c.102.015.2.048.305.048 1.103 0 2-.897 2-2zM37.604 21.81c1.176.391 2.134.923 2.73 1.589l2.077-3.636A3.987 3.987 0 0 1 42 18c0-.223.031-.438.066-.652zM30.414 19l-2 2h5.968l-1-2zM12.914 14.5l3.201 3.201a7.926 7.926 0 0 1 .79-2.382L14.5 12.914z"/><path d="M50 18a4.005 4.005 0 0 1-3.183 3.915l1.016 1.778C50.279 22.906 52 20.625 52 18c0-3.309-2.691-6-6-6a5.943 5.943 0 0 0-3 .823v2.559A3.974 3.974 0 0 1 46 14c2.206 0 4 1.794 4 4zM42.981 41.885c.654.068 1.324.115 2.019.115 4.547 0 7-1.42 7-2v-1.4c-1.736.923-4.374 1.4-7 1.4-1.226 0-2.411-.103-3.499-.291.912.611 1.435 1.351 1.48 2.176zM53.971 35.737A1.993 1.993 0 0 0 55 34a1.997 1.997 0 0 0-1.726-1.972l-.469 1.875c.667.511 1.081 1.125 1.166 1.834z"/><path d="m44 21.016-3.478 6.085-5.182-.864L36.781 32h14.438l1.441-5.763-5.182.864zM37 11h-2.586L31 14.414V17h2.586L37 13.586z"/><path d="M30.213 26.908a2.999 2.999 0 0 1 2.757-1.905l-.31-1.24 6.263 1.044C38.496 24.155 36.104 23 32 23c-4.547 0-7 1.42-7 2 0 .434 1.63 1.588 5.213 1.908zM40.312 16.274l-2.115-1.057-2.98 2.98 1.057 2.115zM20.148 20.017A3.95 3.95 0 0 1 20 19c0-2.206 1.794-4 4-4 .342 0 .675.058 1 .143v-2.051A5.97 5.97 0 0 0 24 13c-3.309 0-6 2.691-6 6 0 .406.053.804.132 1.196.656-.09 1.332-.152 2.016-.179zM29 14.618l-2-1v5.968l2-2zM39 13.382l2 1V8.414l-2 2zM37.586 9l2-2h-5.968l1 2zM32.783 9.803l-1.057-2.115-4.038 4.038 2.115 1.057z"/></svg>