<svg height="512" viewBox="0 0 56 56" width="512" xmlns="http://www.w3.org/2000/svg"><g fill="#000" fill-rule="nonzero"><path d="M18.648 26.612c-.043-.063-.086-.129-.132-.186a16.585 16.585 0 0 0-4.1-4.2 3.205 3.205 0 0 0-2.407-.6 4.11 4.11 0 0 0-2.47 2.047c-1.786 2.8-.633 4.435.648 5.311a15.555 15.555 0 0 0 5.01 2.142c.128-.037.245-.063.369-.1.035-.243.084-.484.146-.722a6 6 0 0 1 2.418-3.385c.167-.111.34-.214.518-.307zM21.142 15.688a5.007 5.007 0 0 1 2.186-.741A16.649 16.649 0 0 0 19 9.294a18.272 18.272 0 0 0-3.507 4.04A8.958 8.958 0 0 0 14 18a7.3 7.3 0 0 0 .3 1.933c.438.164.855.378 1.245.636A16.4 16.4 0 0 1 18.23 22.9c.052-1.308.249-2.606.587-3.871a5.584 5.584 0 0 1 2.325-3.341zM15.574 33.1a.963.963 0 0 1-.118.028 17.484 17.484 0 0 0-5.531 2.7 3.266 3.266 0 0 0-1.379 2.135A3.975 3.975 0 0 0 9.7 40.868c2.109 2.515 4.063 1.891 5.329.924a16.233 16.233 0 0 0 3.882-4.416v-.084a5.992 5.992 0 0 1-3.284-4.212zM46.488 11.446 50.8 7.139a4.789 4.789 0 0 1-1.294-.9A4.811 4.811 0 0 1 48.6 4.94l-4.31 4.307a8.117 8.117 0 0 1 2.2 2.2z"/><path d="M16.245 43.383a5.753 5.753 0 0 1-3.438 1.234l-3.1 3.091a1 1 0 1 1-1.412-1.416l2.226-2.219a7.372 7.372 0 0 1-2.351-1.922c-.025-.03-.045-.06-.069-.09l-2.838 2.861L.9 55.1l10.175-4.36 8.4-8.4a18.18 18.18 0 0 1-.352-1.791 16.762 16.762 0 0 1-2.878 2.834zM25.565 17.153a4.111 4.111 0 0 0-3.353.225 3.687 3.687 0 0 0-1.466 2.179 17.6 17.6 0 0 0-.48 5.879l.041.059c.106.162.2.314.3.462.345-.055.694-.08 1.044-.077a6.033 6.033 0 0 1 3.9 1.568c.008-.013.015-.025.024-.037l.068-.1.077-.112a17.859 17.859 0 0 0 2.753-5.516 3.69 3.69 0 0 0-.145-2.622 4.112 4.112 0 0 0-2.763-1.908zM29.112 25.484l7.173-7.173-2.336-2.336-3.426 3.425c.184.935.143 1.9-.119 2.815a17.373 17.373 0 0 1-1.292 3.269zM26.814 29.077a6.015 6.015 0 0 1 .491 4.4v.013c-.09.297-.202.587-.335.868l.061.016c.05.012.098.028.145.048.183.071.372.13.563.175 1.615.471 3.298.667 4.978.581.333-.014.664-.07.983-.168 1.6-.485 2.369-1.849 2.3-4.055A4.171 4.171 0 0 0 34.983 28a3.157 3.157 0 0 0-2.433-.779 13.657 13.657 0 0 0-3.07.552c-.782.222-1.547.499-2.29.829-.126.165-.252.316-.376.475zM7.884 21.172c.137.253.29.497.457.731a5.57 5.57 0 0 1 3.259-2.237c.182-.03.366-.047.55-.053A8.982 8.982 0 0 1 12 18c.04-1.702.494-3.368 1.324-4.854a18.107 18.107 0 0 0-5.071-2c-.695 1.779-2.22 6.525-.369 10.026zM49.9 23.759a1 1 0 0 1-1.136-.2l-3.78-3.779a1 1 0 0 1 0-1.414c1.6-1.6 1.2-4.615-.9-6.716s-5.113-2.5-6.715-.9a1 1 0 0 1-1.414 0l-3.78-3.779a1 1 0 0 1-.2-1.137 2.824 2.824 0 1 0-4.547.792l7.221 7.222h.006l7.23 7.23 7.218 7.219a2.9 2.9 0 0 0 4.006 0 2.823 2.823 0 0 0-3.209-4.538zm-7.115-7.588a1 1 0 0 1-1.414 0l-1.806-1.807a1 1 0 0 1 1.414-1.414l1.806 1.807a1 1 0 0 1 0 1.414zM24.7 34.308c.306-.407.534-.867.674-1.356a4.013 4.013 0 0 0-3.771-5.072 3.35 3.35 0 0 0-1.176.154.912.912 0 0 1-.144.034c-.363.12-.708.289-1.027.5a4 4 0 0 0-1.614 2.253 4.448 4.448 0 0 0-.144 1.018c0 .037.008.124.009.162a3.989 3.989 0 0 0 2.743 3.683l.1.031a4.018 4.018 0 0 0 4.35-1.407zM50.915.814a2.832 2.832 0 0 0 0 4.006 2.9 2.9 0 0 0 4.005 0A2.832 2.832 0 1 0 50.915.814zM32.171 25.253c.087-.007.179-.027.265-.031a5.23 5.23 0 0 1 3.161.728l4.167-4.16-2.064-2.065zM27.732 47.52a7.805 7.805 0 0 1-2.565.468 5.132 5.132 0 0 1-3.151-1.021c.008.515.073 1.027.193 1.527.958 3.861 5.246 6.385 6.949 7.25a17.741 17.741 0 0 0 2.642-5.562 12.191 12.191 0 0 1-4.043-2.673zM33.822 37.036a5.906 5.906 0 0 1-1 .143c-.306.02-.616.03-.93.03-.84-.004-1.68-.074-2.509-.209a17.607 17.607 0 0 1 1.917 3.446 4.837 4.837 0 0 1-1.667 6.123 11.478 11.478 0 0 0 3.667 2.082c1.292.465 2.63.79 3.992.969.515-1.842 1.56-6.712-.621-10.019a8.347 8.347 0 0 0-2.849-2.565z"/><path d="M27.06 45.636c.177-.065.358-.132.522-.21 2.521-1.11 2.4-2.909 1.863-4.227a16.951 16.951 0 0 0-2.917-4.638l-.025-.027-.019-.02c-.02-.021-.041-.04-.059-.063-.064-.078-.134-.154-.2-.231-.06-.019-.119-.032-.178-.057s-.158-.052-.24-.08a5.951 5.951 0 0 1-4.276 1.81c-.2 0-.4-.021-.6-.041.004 1.529.21 3.05.616 4.524.129.45.28.894.453 1.329.044.1.089.211.144.312.646 1.318 2.013 2.636 4.916 1.619z"/></g></svg>